<svg width="204" height="20" viewBox="0 0 204 20" fill="none" xmlns="http://www.w3.org/2000/svg">
<path d="M7.56426 19.5431H12.648V5.21305H20.1866V1.51782H0V5.21305H7.56426V19.5431Z" fill="#FDFDFD"/>
<path d="M31.5444 20.0001C35.1113 20.0001 38.5498 19.0385 40.3204 17.6688L38.8549 15.3404C37.4892 16.3534 34.7064 17.1124 31.8979 17.1124C28.9127 17.1124 26.2811 16.0994 25.7251 14.2276H40.0182C40.118 13.848 40.1436 13.3401 40.1436 13.0377C40.1436 8.91156 36.3002 6.12659 30.632 6.12659C24.8383 6.12659 20.7925 8.98575 20.7925 13.012C20.7925 17.1894 25.1947 20.0001 31.5444 20.0001ZM25.6224 11.9733C25.8505 10.1756 27.9262 8.88588 30.5579 8.88588C33.2123 8.88588 35.3137 10.1015 35.4648 11.9733H25.6224Z" fill="#FDFDFD"/>
<path d="M51.1185 20.0001C55.9257 20.0001 59.4925 18.5049 59.4925 15.4688C59.4925 12.9093 57.089 11.8991 52.815 11.5424L49.4249 11.24C47.5517 11.0631 46.6165 10.7834 46.6165 10.0501C46.6165 9.16267 48.3358 8.6576 50.6139 8.6576C53.0402 8.6576 55.4951 9.4423 56.8609 10.5066L58.2523 8.32946C56.379 6.9598 53.5734 6.12659 50.688 6.12659C46.0092 6.12659 42.6191 7.59326 42.6191 10.5808C42.6191 12.9093 44.8715 13.9222 48.8433 14.2276L52.2077 14.5043C54.2805 14.7069 55.3925 15.0636 55.3925 15.8226C55.3925 16.7072 53.7759 17.2893 50.8648 17.2893C47.6287 17.2893 44.4153 16.2278 42.9983 14.7583L41.4814 17.0867C43.2264 18.7845 47.1468 20.0001 51.1185 20.0001Z" fill="#FDFDFD"/>
<path d="M69.8104 20.0001C74.6176 20.0001 78.1844 18.5049 78.1844 15.4688C78.1844 12.9093 75.7809 11.8991 71.5069 11.5424L68.1168 11.24C66.2436 11.0631 65.3084 10.7834 65.3084 10.0501C65.3084 9.16267 67.0276 8.6576 69.3058 8.6576C71.7321 8.6576 74.187 9.4423 75.5528 10.5066L76.9442 8.32946C75.0709 6.9598 72.2653 6.12659 69.3799 6.12659C64.7011 6.12659 61.311 7.59326 61.311 10.5808C61.311 12.9093 63.5634 13.9222 67.5352 14.2276L70.8996 14.5043C72.9724 14.7069 74.0844 15.0636 74.0844 15.8226C74.0844 16.7072 72.4678 17.2893 69.5567 17.2893C66.3205 17.2893 63.1072 16.2278 61.6902 14.7583L60.1733 17.0867C61.9183 18.7845 65.8387 20.0001 69.8104 20.0001Z" fill="#FDFDFD"/>
<path d="M78.4609 19.5431H83.7471L85.4664 15.9991H95.5853L97.3074 19.5431H102.594L93.5638 1.51782H87.6675L78.4609 19.5431ZM86.6068 12.9345L90.5273 4.80786H90.5786L94.4477 12.9345H86.6068Z" fill="#FDFDFD"/>
<path d="M115.364 19.9998C120.297 19.9998 123.536 17.2405 123.536 13.063C123.536 8.88556 120.297 6.12626 115.39 6.12626C112.025 6.12626 109.191 7.59294 108.128 9.79581H108.105V0.758911H103.475V19.5432H107.472L108.054 16.276H108.079C109.14 18.5302 112 19.9998 115.364 19.9998ZM113.417 16.7839C110.126 16.7839 107.951 15.2887 107.951 13.063C107.951 10.8345 110.126 9.33926 113.417 9.33926C116.73 9.33926 118.905 10.8345 118.905 13.063C118.905 15.2887 116.73 16.7839 113.417 16.7839Z" fill="#FDFDFD"/>
<path d="M127.428 4.80808C128.996 4.80808 130.108 3.82078 130.108 2.40261C130.108 0.987296 128.996 0 127.428 0C125.857 0 124.771 0.987296 124.771 2.40261C124.771 3.82078 125.857 4.80808 127.428 4.80808ZM125.124 19.5433H129.754V6.58007H125.124V19.5433Z" fill="#FDFDFD"/>
<path d="M141.113 20C144.121 20 146.348 18.9871 147.993 17.0638L146.627 14.53C145.487 15.9481 144.096 16.7585 142.302 16.7585C140.352 16.7585 139.417 15.7969 139.442 14.0506V9.5193H147.537V6.58024H139.442V2.04895L134.786 2.88501V6.58024H130.84V9.5193H134.812V14.9865C134.838 18.1253 137.164 20 141.113 20Z" fill="#FDFDFD"/>
<path d="M161.017 19.9998C165.95 19.9998 169.189 17.2405 169.189 13.063C169.189 8.88556 165.95 6.12626 161.043 6.12626C157.679 6.12626 154.845 7.59294 153.781 9.79581H153.758V0.758911H149.128V19.5432H153.125L153.707 16.276H153.733C154.793 18.5302 157.653 19.9998 161.017 19.9998ZM159.07 16.7839C155.78 16.7839 153.604 15.2887 153.604 13.063C153.604 10.8345 155.78 9.33926 159.07 9.33926C162.383 9.33926 164.559 10.8345 164.559 13.063C164.559 15.2887 162.383 16.7839 159.07 16.7839Z" fill="#FDFDFD"/>
<path d="M180.342 20.0001C186.463 20.0001 190.461 17.2408 190.461 13.0633C190.461 8.88588 186.463 6.12659 180.342 6.12659C174.246 6.12659 170.249 8.88588 170.249 13.0633C170.249 17.2408 174.246 20.0001 180.342 20.0001ZM180.342 17.0867C177.029 17.0867 174.876 15.4916 174.876 13.0633C174.876 10.6322 177.029 9.03711 180.342 9.03711C183.681 9.03711 185.83 10.6322 185.83 13.0633C185.83 15.4916 183.681 17.0867 180.342 17.0867Z" fill="#FDFDFD"/>
<path d="M191.899 19.5432H196.53V0.758911H191.899V19.5432Z" fill="#FDFDFD"/>
<path d="M200.649 19.8232C202.217 19.8232 203.332 18.8587 203.332 17.4662C203.332 16.0994 202.217 15.1378 200.649 15.1378C199.106 15.1378 197.994 16.0994 197.994 17.4662C197.994 18.8587 199.106 19.8232 200.649 19.8232Z" fill="#FDFDFD"/>
</svg>
